<mxfile host="drawio-plugin" agent="Mozilla/5.0 (Windows NT 10.0; Win64; x64) AppleWebKit/537.36 (KHTML, like Gecko) Chrome/122.0.0.0 Safari/537.36" modified="2025-01-12T05:26:56.078Z" version="22.1.22" etag="kFd3NQiNQ5K8RmB6BSwg" type="embed">
  <diagram name="Page-1" id="9f46799a-70d6-7492-0946-bef42562c5a5">
    <mxGraphModel dx="1633" dy="1542" grid="1" gridSize="10" guides="1" tooltips="1" connect="1" arrows="1" fold="1" page="0" pageScale="1" pageWidth="1100" pageHeight="850" background="none" math="0" shadow="0">
      <root>
        <mxCell id="0" />
        <mxCell id="1" parent="0" />
        <mxCell id="h4POohfaNBwg2EkNm5uO-270" value="&lt;span style=&quot;white-space: pre;&quot;&gt;&#x9;&lt;/span&gt;" style="rounded=1;html=1;fillColor=#BF6CD8;strokeWidth=4;dashed=1;perimeterSpacing=0;arcSize=8;strokeColor=#C73500;fontColor=#000000;opacity=20;align=center;fontFamily=Candara;fontStyle=1" parent="1" vertex="1">
          <mxGeometry x="1580" y="580" width="1160" height="950" as="geometry" />
        </mxCell>
        <mxCell id="h4POohfaNBwg2EkNm5uO-231" value="&lt;span style=&quot;white-space: pre;&quot;&gt;&#x9;&lt;/span&gt;" style="rounded=1;html=1;fillColor=#EA6B66;strokeWidth=4;dashed=1;perimeterSpacing=0;arcSize=8;strokeColor=#6D1F00;fontColor=#ffffff;opacity=20;align=center;fontFamily=Candara;fontStyle=1" parent="1" vertex="1">
          <mxGeometry x="-310" y="1550" width="1710" height="290" as="geometry" />
        </mxCell>
        <mxCell id="h4POohfaNBwg2EkNm5uO-230" value="&lt;span style=&quot;white-space: pre;&quot;&gt;&#x9;&lt;/span&gt;" style="rounded=1;html=1;fillColor=#008a00;strokeWidth=4;dashed=1;perimeterSpacing=0;arcSize=8;strokeColor=#005700;fontColor=#ffffff;opacity=20;align=center;fontFamily=Candara;fontStyle=1" parent="1" vertex="1">
          <mxGeometry x="570" y="520" width="240" height="220" as="geometry" />
        </mxCell>
        <mxCell id="h4POohfaNBwg2EkNm5uO-229" value="&lt;span style=&quot;white-space: pre;&quot;&gt;&#x9;&lt;/span&gt;" style="rounded=1;html=1;fillColor=#1ba1e2;strokeWidth=4;dashed=1;perimeterSpacing=0;arcSize=8;strokeColor=#006EAF;fontColor=#ffffff;opacity=20;align=center;fontFamily=Candara;fontStyle=1" parent="1" vertex="1">
          <mxGeometry x="-290" y="870" width="1690" height="556" as="geometry" />
        </mxCell>
        <mxCell id="h4POohfaNBwg2EkNm5uO-131" style="edgeStyle=orthogonalEdgeStyle;rounded=0;orthogonalLoop=1;jettySize=auto;html=1;entryX=0.5;entryY=1;entryDx=0;entryDy=0;align=center;fontSize=11;strokeWidth=4;fontFamily=Candara;" parent="1" source="h4POohfaNBwg2EkNm5uO-124" target="h4POohfaNBwg2EkNm5uO-127" edge="1">
          <mxGeometry relative="1" as="geometry" />
        </mxCell>
        <mxCell id="h4POohfaNBwg2EkNm5uO-124" value="&lt;span style=&quot;white-space: pre;&quot;&gt;&#x9;&lt;/span&gt;" style="rounded=1;html=1;fillColor=#fa6800;strokeWidth=4;dashed=1;perimeterSpacing=0;arcSize=8;strokeColor=#C73500;fontColor=#000000;opacity=20;align=center;fontFamily=Candara;fontStyle=1" parent="1" vertex="1">
          <mxGeometry y="-190" width="1380" height="600" as="geometry" />
        </mxCell>
        <mxCell id="h4POohfaNBwg2EkNm5uO-101" value="" style="edgeStyle=orthogonalEdgeStyle;rounded=0;orthogonalLoop=1;jettySize=auto;html=1;exitX=1;exitY=0.5;exitDx=0;exitDy=0;align=center;fontSize=11;strokeWidth=4;fontFamily=Candara;entryX=0.5;entryY=1;entryDx=0;entryDy=0;" parent="1" source="78961159f06e98e8-108" target="h4POohfaNBwg2EkNm5uO-99" edge="1">
          <mxGeometry relative="1" as="geometry">
            <mxPoint x="780" y="1928.5172413793102" as="sourcePoint" />
            <mxPoint x="1230" y="1510" as="targetPoint" />
          </mxGeometry>
        </mxCell>
        <mxCell id="h4POohfaNBwg2EkNm5uO-163" style="edgeStyle=orthogonalEdgeStyle;rounded=0;orthogonalLoop=1;jettySize=auto;html=1;entryX=0.5;entryY=1;entryDx=0;entryDy=0;align=center;fontSize=11;strokeWidth=4;fontFamily=Candara;" parent="1" source="78961159f06e98e8-108" target="h4POohfaNBwg2EkNm5uO-22" edge="1">
          <mxGeometry relative="1" as="geometry" />
        </mxCell>
        <mxCell id="h4POohfaNBwg2EkNm5uO-164" style="edgeStyle=orthogonalEdgeStyle;rounded=0;orthogonalLoop=1;jettySize=auto;html=1;entryX=0.5;entryY=1;entryDx=0;entryDy=0;align=center;fontSize=11;strokeWidth=4;fontFamily=Candara;" parent="1" source="78961159f06e98e8-108" target="h4POohfaNBwg2EkNm5uO-2" edge="1">
          <mxGeometry relative="1" as="geometry" />
        </mxCell>
        <mxCell id="78961159f06e98e8-108" value="VIEW" style="swimlane;html=1;fontStyle=1;align=center;verticalAlign=top;childLayout=stackLayout;horizontal=1;startSize=26;horizontalStack=0;resizeParent=1;resizeLast=0;collapsible=1;marginBottom=0;swimlaneFillColor=#ffffff;rounded=1;shadow=0;comic=0;labelBackgroundColor=none;strokeWidth=1;fillColor=#000000;fontFamily=Candara;fontSize=12;fontColor=#FFFFFF;" parent="1" vertex="1" collapsed="1">
          <mxGeometry x="600" y="2020" width="180" height="170" as="geometry">
            <mxRectangle x="840" y="390" width="160" height="147" as="alternateBounds" />
          </mxGeometry>
        </mxCell>
        <mxCell id="78961159f06e98e8-116" value="" style="line;html=1;strokeWidth=1;fillColor=none;align=left;verticalAlign=middle;spacingTop=-1;spacingLeft=3;spacingRight=3;rotatable=0;labelPosition=right;points=[];portConstraint=eastwest;" parent="78961159f06e98e8-108" vertex="1">
          <mxGeometry y="26" width="160" height="8" as="geometry" />
        </mxCell>
        <mxCell id="h4POohfaNBwg2EkNm5uO-26" value="" style="edgeStyle=orthogonalEdgeStyle;rounded=0;orthogonalLoop=1;jettySize=auto;html=1;align=center;fontSize=11;strokeWidth=4;fontFamily=Candara;" parent="1" source="h4POohfaNBwg2EkNm5uO-2" target="h4POohfaNBwg2EkNm5uO-24" edge="1">
          <mxGeometry relative="1" as="geometry" />
        </mxCell>
        <mxCell id="h4POohfaNBwg2EkNm5uO-2" value="MainHomeController" style="swimlane;html=1;fontStyle=1;align=center;verticalAlign=top;childLayout=stackLayout;horizontal=1;startSize=26;horizontalStack=0;resizeParent=1;resizeLast=0;collapsible=1;marginBottom=0;swimlaneFillColor=#ffffff;rounded=1;shadow=0;comic=0;labelBackgroundColor=none;strokeWidth=1;fontFamily=Candara;fontSize=12;fillColor=#ffcccc;strokeColor=#36393d;" parent="1" vertex="1">
          <mxGeometry x="-230" y="1610" width="180" height="170" as="geometry">
            <mxRectangle x="-160" y="1158" width="200" height="90" as="alternateBounds" />
          </mxGeometry>
        </mxCell>
        <mxCell id="h4POohfaNBwg2EkNm5uO-211" value="&lt;ul style=&quot;padding-left: 20px;&quot;&gt;&lt;li&gt;&lt;span style=&quot;background-color: initial;&quot;&gt;Text&lt;/span&gt;&lt;/li&gt;&lt;/ul&gt;" style="text;strokeColor=none;align=left;fillColor=none;html=1;verticalAlign=middle;rounded=0;fontFamily=Candara;fontSize=12;fontColor=#000000;fontStyle=1;labelBackgroundColor=none;spacingLeft=0;spacingBottom=1;" parent="h4POohfaNBwg2EkNm5uO-2" vertex="1">
          <mxGeometry y="26" width="180" height="30" as="geometry" />
        </mxCell>
        <mxCell id="h4POohfaNBwg2EkNm5uO-32" value="" style="edgeStyle=orthogonalEdgeStyle;rounded=0;orthogonalLoop=1;jettySize=auto;html=1;align=center;fontSize=11;strokeWidth=4;fontFamily=Candara;" parent="1" source="h4POohfaNBwg2EkNm5uO-20" target="h4POohfaNBwg2EkNm5uO-30" edge="1">
          <mxGeometry relative="1" as="geometry" />
        </mxCell>
        <mxCell id="h4POohfaNBwg2EkNm5uO-111" value="" style="edgeStyle=orthogonalEdgeStyle;rounded=0;orthogonalLoop=1;jettySize=auto;html=1;align=center;fontSize=11;strokeWidth=4;fontFamily=Candara;" parent="1" source="h4POohfaNBwg2EkNm5uO-20" target="h4POohfaNBwg2EkNm5uO-109" edge="1">
          <mxGeometry relative="1" as="geometry" />
        </mxCell>
        <mxCell id="h4POohfaNBwg2EkNm5uO-20" value="CommunityController" style="swimlane;html=1;fontStyle=1;align=center;verticalAlign=top;childLayout=stackLayout;horizontal=1;startSize=26;horizontalStack=0;resizeParent=1;resizeLast=0;collapsible=1;marginBottom=0;swimlaneFillColor=#ffffff;rounded=1;shadow=0;comic=0;labelBackgroundColor=none;strokeWidth=1;fontFamily=Candara;fontSize=12;fillColor=#ffcccc;strokeColor=#36393d;" parent="1" vertex="1">
          <mxGeometry x="320" y="1610" width="180" height="170" as="geometry">
            <mxRectangle x="400" y="1380" width="200" height="90" as="alternateBounds" />
          </mxGeometry>
        </mxCell>
        <mxCell id="h4POohfaNBwg2EkNm5uO-208" value="&lt;ul style=&quot;padding-left: 20px;&quot;&gt;&lt;li&gt;&lt;span style=&quot;background-color: initial;&quot;&gt;Text&lt;/span&gt;&lt;/li&gt;&lt;/ul&gt;" style="text;strokeColor=none;align=left;fillColor=none;html=1;verticalAlign=middle;rounded=0;fontFamily=Candara;fontSize=12;fontColor=#000000;fontStyle=1;labelBackgroundColor=none;spacingLeft=0;spacingBottom=1;" parent="h4POohfaNBwg2EkNm5uO-20" vertex="1">
          <mxGeometry y="26" width="180" height="30" as="geometry" />
        </mxCell>
        <mxCell id="h4POohfaNBwg2EkNm5uO-29" value="" style="edgeStyle=orthogonalEdgeStyle;rounded=0;orthogonalLoop=1;jettySize=auto;html=1;align=center;fontSize=11;strokeWidth=4;fontFamily=Candara;" parent="1" source="h4POohfaNBwg2EkNm5uO-22" target="h4POohfaNBwg2EkNm5uO-27" edge="1">
          <mxGeometry relative="1" as="geometry" />
        </mxCell>
        <mxCell id="h4POohfaNBwg2EkNm5uO-22" value="BoardController" style="swimlane;html=1;fontStyle=1;align=center;verticalAlign=top;childLayout=stackLayout;horizontal=1;startSize=26;horizontalStack=0;resizeParent=1;resizeLast=0;collapsible=1;marginBottom=0;swimlaneFillColor=#ffffff;rounded=1;shadow=0;comic=0;labelBackgroundColor=none;strokeWidth=1;fontFamily=Candara;fontSize=12;fillColor=#ffcccc;strokeColor=#36393d;" parent="1" vertex="1">
          <mxGeometry x="600" y="1610" width="180" height="170" as="geometry">
            <mxRectangle x="670" y="1380" width="200" height="90" as="alternateBounds" />
          </mxGeometry>
        </mxCell>
        <mxCell id="h4POohfaNBwg2EkNm5uO-209" value="&lt;ul style=&quot;padding-left: 20px;&quot;&gt;&lt;li&gt;&lt;span style=&quot;background-color: initial;&quot;&gt;Text&lt;/span&gt;&lt;/li&gt;&lt;/ul&gt;" style="text;strokeColor=none;align=left;fillColor=none;html=1;verticalAlign=middle;rounded=0;fontFamily=Candara;fontSize=12;fontColor=#000000;fontStyle=1;labelBackgroundColor=none;spacingLeft=0;spacingBottom=1;" parent="h4POohfaNBwg2EkNm5uO-22" vertex="1">
          <mxGeometry y="26" width="180" height="30" as="geometry" />
        </mxCell>
        <mxCell id="h4POohfaNBwg2EkNm5uO-24" value="MainHomeService" style="swimlane;html=1;fontStyle=1;align=center;verticalAlign=top;childLayout=stackLayout;horizontal=1;startSize=26;horizontalStack=0;resizeParent=1;resizeLast=0;collapsible=1;marginBottom=0;swimlaneFillColor=#ffffff;rounded=1;shadow=0;comic=0;labelBackgroundColor=none;strokeWidth=1;fillColor=#cce5ff;fontFamily=Candara;fontSize=12;strokeColor=#36393d;" parent="1" vertex="1">
          <mxGeometry x="-230" y="1178" width="180" height="170" as="geometry">
            <mxRectangle x="-160" y="990" width="200" height="90" as="alternateBounds" />
          </mxGeometry>
        </mxCell>
        <mxCell id="h4POohfaNBwg2EkNm5uO-220" value="&lt;ul style=&quot;padding-left: 20px; margin-top: 0px; line-height: 160%;&quot;&gt;&lt;li&gt;&lt;span style=&quot;background-color: initial;&quot;&gt;manegiment() - give Role etc...&lt;/span&gt;&lt;br&gt;&lt;/li&gt;&lt;/ul&gt;" style="text;strokeColor=none;align=left;fillColor=none;html=1;verticalAlign=top;rounded=0;fontFamily=Candara;fontSize=12;fontColor=#000000;fontStyle=5;labelBackgroundColor=none;spacingLeft=0;spacingBottom=1;" parent="h4POohfaNBwg2EkNm5uO-24" vertex="1">
          <mxGeometry y="26" width="180" height="30" as="geometry" />
        </mxCell>
        <mxCell id="h4POohfaNBwg2EkNm5uO-167" style="edgeStyle=orthogonalEdgeStyle;rounded=0;orthogonalLoop=1;jettySize=auto;html=1;entryX=0.5;entryY=1;entryDx=0;entryDy=0;align=center;fontSize=11;strokeWidth=4;fontFamily=Candara;" parent="1" source="h4POohfaNBwg2EkNm5uO-27" target="h4POohfaNBwg2EkNm5uO-47" edge="1">
          <mxGeometry relative="1" as="geometry" />
        </mxCell>
        <mxCell id="h4POohfaNBwg2EkNm5uO-27" value="BoardService" style="swimlane;html=1;fontStyle=1;align=center;verticalAlign=top;childLayout=stackLayout;horizontal=1;startSize=26;horizontalStack=0;resizeParent=1;resizeLast=0;collapsible=1;marginBottom=0;swimlaneFillColor=#ffffff;rounded=1;shadow=0;comic=0;labelBackgroundColor=none;strokeWidth=1;fillColor=#cce5ff;fontFamily=Candara;fontSize=12;strokeColor=#36393d;" parent="1" vertex="1">
          <mxGeometry x="600" y="1178" width="180" height="182" as="geometry">
            <mxRectangle x="670" y="1212" width="200" height="90" as="alternateBounds" />
          </mxGeometry>
        </mxCell>
        <mxCell id="h4POohfaNBwg2EkNm5uO-217" value="&lt;ul style=&quot;padding-left: 20px; margin-top: 0px; line-height: 160%;&quot;&gt;&lt;li&gt;&lt;span style=&quot;background-color: initial;&quot;&gt;regist()&lt;/span&gt;&lt;/li&gt;&lt;li&gt;&lt;span style=&quot;background-color: initial;&quot;&gt;read()&lt;/span&gt;.&lt;/li&gt;&lt;li&gt;modify()&lt;/li&gt;&lt;li&gt;delete()&lt;/li&gt;&lt;li&gt;list() - replycount and image&lt;/li&gt;&lt;li&gt;vote()&lt;/li&gt;&lt;li&gt;search()&lt;/li&gt;&lt;/ul&gt;" style="text;strokeColor=none;align=left;fillColor=none;html=1;verticalAlign=top;rounded=0;fontFamily=Candara;fontSize=12;fontColor=#000000;fontStyle=5;labelBackgroundColor=none;spacingLeft=0;spacingBottom=1;" parent="h4POohfaNBwg2EkNm5uO-27" vertex="1">
          <mxGeometry y="26" width="180" height="30" as="geometry" />
        </mxCell>
        <mxCell id="h4POohfaNBwg2EkNm5uO-169" style="edgeStyle=orthogonalEdgeStyle;rounded=0;orthogonalLoop=1;jettySize=auto;html=1;entryX=0.5;entryY=1;entryDx=0;entryDy=0;align=center;fontSize=11;strokeWidth=4;fontFamily=Candara;" parent="1" source="h4POohfaNBwg2EkNm5uO-30" target="h4POohfaNBwg2EkNm5uO-47" edge="1">
          <mxGeometry relative="1" as="geometry">
            <Array as="points">
              <mxPoint x="410" y="1136" />
              <mxPoint x="690" y="1136" />
            </Array>
          </mxGeometry>
        </mxCell>
        <mxCell id="h4POohfaNBwg2EkNm5uO-30" value="CommunityService" style="swimlane;html=1;fontStyle=1;align=center;verticalAlign=top;childLayout=stackLayout;horizontal=1;startSize=26;horizontalStack=0;resizeParent=1;resizeLast=0;collapsible=1;marginBottom=0;swimlaneFillColor=#ffffff;rounded=1;shadow=0;comic=0;labelBackgroundColor=none;strokeWidth=1;fillColor=#cce5ff;fontFamily=Candara;fontSize=12;strokeColor=#36393d;" parent="1" vertex="1">
          <mxGeometry x="320" y="1178" width="180" height="170" as="geometry">
            <mxRectangle x="400" y="1212" width="200" height="90" as="alternateBounds" />
          </mxGeometry>
        </mxCell>
        <mxCell id="h4POohfaNBwg2EkNm5uO-218" value="&lt;ul style=&quot;padding-left: 20px; margin-top: 0px; line-height: 160%;&quot;&gt;&lt;li&gt;create()&lt;/li&gt;&lt;li&gt;select()&lt;/li&gt;&lt;li&gt;modify()&lt;/li&gt;&lt;li&gt;delete()&lt;/li&gt;&lt;li&gt;manegiment() - give Role etc...&lt;/li&gt;&lt;/ul&gt;" style="text;strokeColor=none;align=left;fillColor=none;html=1;verticalAlign=top;rounded=0;fontFamily=Candara;fontSize=12;fontColor=#000000;fontStyle=5;labelBackgroundColor=none;spacingLeft=0;spacingBottom=1;" parent="h4POohfaNBwg2EkNm5uO-30" vertex="1">
          <mxGeometry y="26" width="180" height="30" as="geometry" />
        </mxCell>
        <mxCell id="h4POohfaNBwg2EkNm5uO-38" value="" style="edgeStyle=orthogonalEdgeStyle;rounded=0;orthogonalLoop=1;jettySize=auto;html=1;align=center;fontSize=11;strokeWidth=4;fontFamily=Candara;" parent="1" source="h4POohfaNBwg2EkNm5uO-33" target="h4POohfaNBwg2EkNm5uO-36" edge="1">
          <mxGeometry relative="1" as="geometry" />
        </mxCell>
        <mxCell id="h4POohfaNBwg2EkNm5uO-33" value="ReplyController" style="swimlane;html=1;fontStyle=1;align=center;verticalAlign=top;childLayout=stackLayout;horizontal=1;startSize=26;horizontalStack=0;resizeParent=1;resizeLast=0;collapsible=1;marginBottom=0;swimlaneFillColor=#ffffff;rounded=1;shadow=0;comic=0;labelBackgroundColor=none;strokeWidth=1;fontFamily=Candara;fontSize=12;fillColor=#ffcccc;strokeColor=#36393d;" parent="1" vertex="1">
          <mxGeometry x="880" y="1610" width="180" height="170" as="geometry">
            <mxRectangle x="940" y="1380" width="200" height="90" as="alternateBounds" />
          </mxGeometry>
        </mxCell>
        <mxCell id="h4POohfaNBwg2EkNm5uO-210" value="&lt;ul style=&quot;padding-left: 20px;&quot;&gt;&lt;li&gt;&lt;span style=&quot;background-color: initial;&quot;&gt;Text&lt;/span&gt;&lt;/li&gt;&lt;/ul&gt;" style="text;strokeColor=none;align=left;fillColor=none;html=1;verticalAlign=middle;rounded=0;fontFamily=Candara;fontSize=12;fontColor=#000000;fontStyle=1;labelBackgroundColor=none;spacingLeft=0;spacingBottom=1;" parent="h4POohfaNBwg2EkNm5uO-33" vertex="1">
          <mxGeometry y="26" width="180" height="30" as="geometry" />
        </mxCell>
        <mxCell id="h4POohfaNBwg2EkNm5uO-168" style="edgeStyle=orthogonalEdgeStyle;rounded=0;orthogonalLoop=1;jettySize=auto;html=1;entryX=0.5;entryY=1;entryDx=0;entryDy=0;align=center;fontSize=11;strokeWidth=4;fontFamily=Candara;" parent="1" source="h4POohfaNBwg2EkNm5uO-36" target="h4POohfaNBwg2EkNm5uO-47" edge="1">
          <mxGeometry relative="1" as="geometry">
            <Array as="points">
              <mxPoint x="970" y="1136" />
              <mxPoint x="690" y="1136" />
            </Array>
          </mxGeometry>
        </mxCell>
        <mxCell id="h4POohfaNBwg2EkNm5uO-36" value="ReplyService" style="swimlane;html=1;fontStyle=1;align=center;verticalAlign=top;childLayout=stackLayout;horizontal=1;startSize=26;horizontalStack=0;resizeParent=1;resizeLast=0;collapsible=1;marginBottom=0;swimlaneFillColor=#ffffff;rounded=1;shadow=0;comic=0;labelBackgroundColor=none;strokeWidth=1;fillColor=#cce5ff;fontFamily=Candara;fontSize=12;strokeColor=#36393d;" parent="1" vertex="1">
          <mxGeometry x="880" y="1178" width="180" height="170" as="geometry">
            <mxRectangle x="940" y="1212" width="200" height="90" as="alternateBounds" />
          </mxGeometry>
        </mxCell>
        <mxCell id="h4POohfaNBwg2EkNm5uO-216" value="&lt;ul style=&quot;padding-left: 20px; margin-top: 0px; line-height: 160%;&quot;&gt;&lt;li&gt;&lt;span style=&quot;background-color: initial;&quot;&gt;regist()&lt;/span&gt;&lt;/li&gt;&lt;li&gt;&lt;span style=&quot;background-color: initial;&quot;&gt;read()&lt;/span&gt;.&lt;/li&gt;&lt;li&gt;delete()&lt;/li&gt;&lt;li&gt;vote()&lt;/li&gt;&lt;li&gt;getListOfBoard()&lt;/li&gt;&lt;/ul&gt;" style="text;strokeColor=none;align=left;fillColor=none;html=1;verticalAlign=top;rounded=0;fontFamily=Candara;fontSize=12;fontColor=#000000;fontStyle=5;labelBackgroundColor=none;spacingLeft=0;spacingBottom=1;" parent="h4POohfaNBwg2EkNm5uO-36" vertex="1">
          <mxGeometry y="26" width="180" height="30" as="geometry" />
        </mxCell>
        <mxCell id="h4POohfaNBwg2EkNm5uO-63" value="" style="edgeStyle=orthogonalEdgeStyle;rounded=0;orthogonalLoop=1;jettySize=auto;html=1;align=center;fontSize=11;strokeWidth=4;fontFamily=Candara;" parent="1" target="h4POohfaNBwg2EkNm5uO-61" edge="1">
          <mxGeometry relative="1" as="geometry">
            <mxPoint x="674.8571428571431" y="590" as="sourcePoint" />
          </mxGeometry>
        </mxCell>
        <mxCell id="h4POohfaNBwg2EkNm5uO-170" style="edgeStyle=orthogonalEdgeStyle;rounded=0;orthogonalLoop=1;jettySize=auto;html=1;align=center;fontSize=11;strokeWidth=4;fontFamily=Candara;entryX=0.5;entryY=1;entryDx=0;entryDy=0;exitX=0.58;exitY=0;exitDx=0;exitDy=0;exitPerimeter=0;" parent="1" source="h4POohfaNBwg2EkNm5uO-229" target="h4POohfaNBwg2EkNm5uO-230" edge="1">
          <mxGeometry relative="1" as="geometry">
            <mxPoint x="690.1999999999998" y="848.3319999999999" as="sourcePoint" />
            <mxPoint x="690" y="780" as="targetPoint" />
          </mxGeometry>
        </mxCell>
        <mxCell id="h4POohfaNBwg2EkNm5uO-47" value="ServiceImpl" style="swimlane;html=1;fontStyle=1;align=center;verticalAlign=top;childLayout=stackLayout;horizontal=1;startSize=26;horizontalStack=0;resizeParent=1;resizeLast=0;collapsible=1;marginBottom=0;swimlaneFillColor=#ffffff;rounded=1;shadow=0;comic=0;labelBackgroundColor=none;strokeWidth=1;fillColor=#1ba1e2;fontFamily=Candara;fontSize=12;fontColor=#ffffff;strokeColor=#006EAF;" parent="1" vertex="1">
          <mxGeometry x="600" y="926" width="180" height="170" as="geometry">
            <mxRectangle x="670" y="990" width="200" height="90" as="alternateBounds" />
          </mxGeometry>
        </mxCell>
        <mxCell id="h4POohfaNBwg2EkNm5uO-200" value="&lt;div&gt;&lt;br&gt;&lt;/div&gt;" style="text;strokeColor=none;align=left;fillColor=none;html=1;verticalAlign=middle;rounded=0;fontFamily=Candara;fontSize=12;fontColor=#000000;fontStyle=1;labelBackgroundColor=none;spacingLeft=0;spacingBottom=1;" parent="h4POohfaNBwg2EkNm5uO-47" vertex="1">
          <mxGeometry y="26" width="180" height="30" as="geometry" />
        </mxCell>
        <mxCell id="h4POohfaNBwg2EkNm5uO-66" value="" style="edgeStyle=orthogonalEdgeStyle;rounded=0;orthogonalLoop=1;jettySize=auto;html=1;align=center;fontSize=11;strokeWidth=4;fontFamily=Candara;entryX=0.5;entryY=1;entryDx=0;entryDy=0;exitX=0.503;exitY=-0.011;exitDx=0;exitDy=0;exitPerimeter=0;" parent="1" source="h4POohfaNBwg2EkNm5uO-230" target="h4POohfaNBwg2EkNm5uO-124" edge="1">
          <mxGeometry relative="1" as="geometry">
            <mxPoint x="690" y="460" as="targetPoint" />
            <mxPoint x="690" y="550" as="sourcePoint" />
          </mxGeometry>
        </mxCell>
        <mxCell id="h4POohfaNBwg2EkNm5uO-61" value="Repository" style="swimlane;html=1;fontStyle=1;align=center;verticalAlign=top;childLayout=stackLayout;horizontal=1;startSize=26;horizontalStack=0;resizeParent=1;resizeLast=0;collapsible=1;marginBottom=0;swimlaneFillColor=#ffffff;rounded=1;shadow=0;comic=0;labelBackgroundColor=none;strokeWidth=1;fillColor=#008a00;fontFamily=Candara;fontSize=12;fontColor=#ffffff;strokeColor=#005700;" parent="1" vertex="1">
          <mxGeometry x="600" y="540" width="180" height="170" as="geometry">
            <mxRectangle x="670" y="822" width="200" height="90" as="alternateBounds" />
          </mxGeometry>
        </mxCell>
        <mxCell id="h4POohfaNBwg2EkNm5uO-199" value="&lt;div&gt;&lt;br&gt;&lt;/div&gt;" style="text;strokeColor=none;align=left;fillColor=none;html=1;verticalAlign=middle;rounded=0;fontFamily=Candara;fontSize=12;fontColor=#000000;fontStyle=1;labelBackgroundColor=none;spacingLeft=0;spacingBottom=1;" parent="h4POohfaNBwg2EkNm5uO-61" vertex="1">
          <mxGeometry y="26" width="180" height="30" as="geometry" />
        </mxCell>
        <mxCell id="h4POohfaNBwg2EkNm5uO-85" value="Community" style="swimlane;html=1;fontStyle=1;align=center;verticalAlign=top;childLayout=stackLayout;horizontal=1;startSize=26;horizontalStack=0;resizeParent=1;resizeLast=0;collapsible=1;marginBottom=0;swimlaneFillColor=#ffffff;rounded=1;shadow=0;comic=0;labelBackgroundColor=none;strokeWidth=1;fillColor=#fa6800;fontFamily=Candara;fontSize=12;fontColor=#000000;strokeColor=#C73500;swimlaneLine=1;glass=0;container=1;" parent="1" vertex="1">
          <mxGeometry x="40" y="120" width="180" height="170" as="geometry">
            <mxRectangle x="400" y="550" width="200" height="90" as="alternateBounds" />
          </mxGeometry>
        </mxCell>
        <mxCell id="h4POohfaNBwg2EkNm5uO-193" value="&lt;ul style=&quot;padding-left: 20px; margin-top: 0px; line-height: 160%;&quot;&gt;&lt;li&gt;&lt;span style=&quot;background-color: initial;&quot;&gt;&lt;u style=&quot;&quot;&gt;&lt;i&gt;&lt;font color=&quot;#004c99&quot;&gt;communityId&lt;/font&gt;&lt;/i&gt;&lt;/u&gt;&lt;/span&gt;&lt;/li&gt;&lt;li&gt;&lt;i&gt;&lt;u&gt;&lt;font color=&quot;#004c99&quot;&gt;communityName&lt;/font&gt;&lt;/u&gt;&lt;/i&gt;&lt;br&gt;&lt;/li&gt;&lt;li&gt;description&lt;/li&gt;&lt;/ul&gt;" style="text;strokeColor=none;align=left;fillColor=none;html=1;verticalAlign=top;rounded=0;fontFamily=Candara;fontSize=12;fontColor=#000000;fontStyle=1;labelBackgroundColor=none;spacingLeft=0;spacingBottom=1;" parent="h4POohfaNBwg2EkNm5uO-85" vertex="1">
          <mxGeometry y="26" width="180" height="30" as="geometry" />
        </mxCell>
        <mxCell id="h4POohfaNBwg2EkNm5uO-88" value="Board" style="swimlane;html=1;fontStyle=1;align=center;verticalAlign=top;childLayout=stackLayout;horizontal=1;startSize=26;horizontalStack=0;resizeParent=1;resizeLast=0;collapsible=1;marginBottom=0;swimlaneFillColor=#ffffff;rounded=1;shadow=0;comic=0;labelBackgroundColor=none;strokeWidth=1;fillColor=#fa6800;fontFamily=Candara;fontSize=12;fontColor=#000000;strokeColor=#C73500;" parent="1" vertex="1">
          <mxGeometry x="600" y="85" width="180" height="240" as="geometry">
            <mxRectangle x="670" y="550" width="200" height="90" as="alternateBounds" />
          </mxGeometry>
        </mxCell>
        <mxCell id="h4POohfaNBwg2EkNm5uO-195" value="&lt;ul style=&quot;padding-left: 20px; margin-top: 0px; line-height: 160%;&quot;&gt;&lt;li&gt;bno&lt;/li&gt;&lt;li&gt;&lt;i&gt;&lt;u&gt;&lt;font color=&quot;#004c99&quot;&gt;path&lt;/font&gt;&lt;/u&gt;&lt;/i&gt;&lt;/li&gt;&lt;li&gt;title&lt;/li&gt;&lt;li&gt;content&lt;/li&gt;&lt;li&gt;writer&lt;/li&gt;&lt;li&gt;&lt;u&gt;&lt;i&gt;&lt;font color=&quot;#004c99&quot;&gt;viewCount&lt;/font&gt;&lt;/i&gt;&lt;/u&gt;&lt;/li&gt;&lt;li&gt;vote&lt;/li&gt;&lt;li&gt;fileSet&lt;/li&gt;&lt;li&gt;rCount&lt;/li&gt;&lt;li&gt;&lt;u&gt;&lt;i&gt;&lt;font color=&quot;#004c99&quot;&gt;writerUuid&lt;/font&gt;&lt;/i&gt;&lt;/u&gt;&lt;/li&gt;&lt;/ul&gt;" style="text;strokeColor=none;align=left;fillColor=none;html=1;verticalAlign=top;rounded=0;fontFamily=Candara;fontSize=12;fontColor=#000000;fontStyle=1;labelBackgroundColor=none;spacingLeft=0;spacingBottom=1;" parent="h4POohfaNBwg2EkNm5uO-88" vertex="1">
          <mxGeometry y="26" width="180" height="30" as="geometry" />
        </mxCell>
        <mxCell id="h4POohfaNBwg2EkNm5uO-96" value="Reply" style="swimlane;html=1;fontStyle=1;align=center;verticalAlign=top;childLayout=stackLayout;horizontal=1;startSize=26;horizontalStack=0;resizeParent=1;resizeLast=0;collapsible=1;marginBottom=0;swimlaneFillColor=#ffffff;rounded=1;shadow=0;comic=0;labelBackgroundColor=none;strokeWidth=1;fillColor=#fa6800;fontFamily=Candara;fontSize=12;fontColor=#000000;strokeColor=#C73500;" parent="1" vertex="1">
          <mxGeometry x="880" y="110" width="180" height="190" as="geometry">
            <mxRectangle x="940" y="550" width="200" height="90" as="alternateBounds" />
          </mxGeometry>
        </mxCell>
        <mxCell id="h4POohfaNBwg2EkNm5uO-196" value="&lt;ul style=&quot;padding-left: 20px; margin-top: 0px; line-height: 160%;&quot;&gt;&lt;li&gt;&lt;span style=&quot;background-color: initial;&quot;&gt;rno&lt;/span&gt;&lt;/li&gt;&lt;li&gt;&lt;span style=&quot;background-color: initial;&quot;&gt;path&lt;/span&gt;&lt;/li&gt;&lt;li&gt;&lt;span style=&quot;background-color: initial;&quot;&gt;replyContent&lt;/span&gt;&lt;/li&gt;&lt;li&gt;&lt;span style=&quot;background-color: initial;&quot;&gt;replyWriter&lt;/span&gt;&lt;/li&gt;&lt;li&gt;replyWriterUuid&lt;/li&gt;&lt;li&gt;&lt;span style=&quot;background-color: initial;&quot;&gt;vote&lt;/span&gt;&lt;/li&gt;&lt;li&gt;&lt;span style=&quot;background-color: initial;&quot;&gt;isNested&lt;/span&gt;&lt;/li&gt;&lt;/ul&gt;" style="text;strokeColor=none;align=left;fillColor=none;html=1;verticalAlign=top;rounded=0;fontFamily=Candara;fontSize=12;fontColor=#000000;fontStyle=1;labelBackgroundColor=none;spacingLeft=0;spacingBottom=1;" parent="h4POohfaNBwg2EkNm5uO-96" vertex="1">
          <mxGeometry y="26" width="180" height="30" as="geometry" />
        </mxCell>
        <mxCell id="h4POohfaNBwg2EkNm5uO-104" value="" style="edgeStyle=orthogonalEdgeStyle;rounded=0;orthogonalLoop=1;jettySize=auto;html=1;align=center;fontSize=11;strokeWidth=4;fontFamily=Candara;" parent="1" source="h4POohfaNBwg2EkNm5uO-99" target="h4POohfaNBwg2EkNm5uO-102" edge="1">
          <mxGeometry relative="1" as="geometry" />
        </mxCell>
        <mxCell id="h4POohfaNBwg2EkNm5uO-99" value="MemberController" style="swimlane;html=1;fontStyle=1;align=center;verticalAlign=top;childLayout=stackLayout;horizontal=1;startSize=26;horizontalStack=0;resizeParent=1;resizeLast=0;collapsible=1;marginBottom=0;swimlaneFillColor=#ffffff;rounded=1;shadow=0;comic=0;labelBackgroundColor=none;strokeWidth=1;fontFamily=Candara;fontSize=12;fillColor=#ffcccc;strokeColor=#36393d;" parent="1" vertex="1">
          <mxGeometry x="1140" y="1610" width="180" height="170" as="geometry">
            <mxRectangle x="1210" y="1158" width="200" height="90" as="alternateBounds" />
          </mxGeometry>
        </mxCell>
        <mxCell id="h4POohfaNBwg2EkNm5uO-201" value="&lt;ul style=&quot;padding-left: 20px;&quot;&gt;&lt;li&gt;&lt;span style=&quot;background-color: initial;&quot;&gt;Text&lt;/span&gt;&lt;/li&gt;&lt;/ul&gt;" style="text;strokeColor=none;align=left;fillColor=none;html=1;verticalAlign=middle;rounded=0;fontFamily=Candara;fontSize=12;fontColor=#000000;fontStyle=1;labelBackgroundColor=none;spacingLeft=0;spacingBottom=1;" parent="h4POohfaNBwg2EkNm5uO-99" vertex="1">
          <mxGeometry y="26" width="180" height="30" as="geometry" />
        </mxCell>
        <mxCell id="h4POohfaNBwg2EkNm5uO-105" style="edgeStyle=orthogonalEdgeStyle;rounded=0;orthogonalLoop=1;jettySize=auto;html=1;align=center;fontSize=11;strokeWidth=4;fontFamily=Candara;exitX=0.5;exitY=0;exitDx=0;exitDy=0;entryX=1;entryY=0.5;entryDx=0;entryDy=0;" parent="1" source="h4POohfaNBwg2EkNm5uO-102" target="h4POohfaNBwg2EkNm5uO-47" edge="1">
          <mxGeometry relative="1" as="geometry">
            <mxPoint x="1140" y="996" as="sourcePoint" />
            <mxPoint x="1070" y="976" as="targetPoint" />
          </mxGeometry>
        </mxCell>
        <mxCell id="h4POohfaNBwg2EkNm5uO-102" value="MemberService" style="swimlane;html=1;fontStyle=1;align=center;verticalAlign=top;childLayout=stackLayout;horizontal=1;startSize=26;horizontalStack=0;resizeParent=1;resizeLast=0;collapsible=1;marginBottom=0;swimlaneFillColor=#ffffff;rounded=1;shadow=0;comic=0;labelBackgroundColor=none;strokeWidth=1;fillColor=#cce5ff;fontFamily=Candara;fontSize=12;strokeColor=#36393d;" parent="1" vertex="1">
          <mxGeometry x="1140" y="1178" width="180" height="170" as="geometry">
            <mxRectangle x="1210" y="990" width="200" height="90" as="alternateBounds" />
          </mxGeometry>
        </mxCell>
        <mxCell id="h4POohfaNBwg2EkNm5uO-198" value="&lt;ul style=&quot;padding-left: 20px; margin-top: 0px; line-height: 160%;&quot;&gt;&lt;li&gt;&lt;span style=&quot;background-color: initial;&quot;&gt;regist()&lt;/span&gt;&lt;/li&gt;&lt;li&gt;&lt;span style=&quot;background-color: initial;&quot;&gt;login()&lt;/span&gt;&lt;/li&gt;&lt;li&gt;&lt;span style=&quot;background-color: initial;&quot;&gt;findByMember()&lt;/span&gt;&lt;/li&gt;&lt;li&gt;&lt;span style=&quot;background-color: initial;&quot;&gt;modify()&lt;/span&gt;&lt;/li&gt;&lt;li&gt;deleteMid()&lt;/li&gt;&lt;li&gt;manegiment()&lt;/li&gt;&lt;/ul&gt;" style="text;strokeColor=none;align=left;fillColor=none;html=1;verticalAlign=top;rounded=0;fontFamily=Candara;fontSize=12;fontColor=#000000;fontStyle=5;labelBackgroundColor=none;spacingLeft=0;spacingBottom=1;" parent="h4POohfaNBwg2EkNm5uO-102" vertex="1">
          <mxGeometry y="26" width="180" height="30" as="geometry" />
        </mxCell>
        <mxCell id="h4POohfaNBwg2EkNm5uO-227" value="" style="edgeStyle=orthogonalEdgeStyle;rounded=0;orthogonalLoop=1;jettySize=auto;html=1;fontFamily=Verdana;fontSize=12;fontColor=#000000;fontStyle=1;labelBackgroundColor=none;startArrow=diamondThin;startFill=1;endArrow=diamondThin;endFill=1;fillColor=#fa6800;strokeColor=#C73500;strokeWidth=4;entryX=0.5;entryY=1;entryDx=0;entryDy=0;" parent="1" source="h4POohfaNBwg2EkNm5uO-106" target="19" edge="1">
          <mxGeometry relative="1" as="geometry">
            <mxPoint x="1230" y="40" as="targetPoint" />
          </mxGeometry>
        </mxCell>
        <mxCell id="h4POohfaNBwg2EkNm5uO-106" value="User" style="swimlane;html=1;fontStyle=1;align=center;verticalAlign=top;childLayout=stackLayout;horizontal=1;startSize=26;horizontalStack=0;resizeParent=1;resizeLast=0;collapsible=1;marginBottom=0;swimlaneFillColor=#ffffff;rounded=1;shadow=0;comic=0;labelBackgroundColor=none;strokeWidth=1;fillColor=#fa6800;fontFamily=Candara;fontSize=12;fontColor=#000000;strokeColor=#C73500;" parent="1" vertex="1">
          <mxGeometry x="1140" y="120" width="180" height="170" as="geometry">
            <mxRectangle x="1210" y="550" width="200" height="90" as="alternateBounds" />
          </mxGeometry>
        </mxCell>
        <mxCell id="h4POohfaNBwg2EkNm5uO-214" value="&lt;ul style=&quot;padding-left: 20px; margin-top: 0px; line-height: 160%;&quot;&gt;&lt;li&gt;id&lt;/li&gt;&lt;li&gt;uuid&lt;/li&gt;&lt;li&gt;name&lt;/li&gt;&lt;li&gt;email&lt;/li&gt;&lt;li&gt;password&lt;/li&gt;&lt;li&gt;roles&lt;/li&gt;&lt;/ul&gt;" style="text;strokeColor=none;align=left;fillColor=none;html=1;verticalAlign=top;rounded=0;fontFamily=Candara;fontSize=12;fontColor=#000000;fontStyle=1;labelBackgroundColor=none;spacingLeft=0;spacingBottom=1;" parent="h4POohfaNBwg2EkNm5uO-106" vertex="1">
          <mxGeometry y="26" width="180" height="30" as="geometry" />
        </mxCell>
        <mxCell id="h4POohfaNBwg2EkNm5uO-112" style="edgeStyle=orthogonalEdgeStyle;rounded=0;orthogonalLoop=1;jettySize=auto;html=1;endArrow=classic;endFill=1;jumpSize=6;targetPerimeterSpacing=0;align=center;fontSize=11;strokeWidth=4;fontFamily=Candara;" parent="1" edge="1">
          <mxGeometry relative="1" as="geometry">
            <mxPoint x="600" y="1010" as="targetPoint" />
            <mxPoint x="130.00347826086974" y="1188" as="sourcePoint" />
            <Array as="points">
              <mxPoint x="130" y="1010" />
            </Array>
          </mxGeometry>
        </mxCell>
        <mxCell id="h4POohfaNBwg2EkNm5uO-109" value="CategoryService" style="swimlane;html=1;fontStyle=1;align=center;verticalAlign=top;childLayout=stackLayout;horizontal=1;startSize=26;horizontalStack=0;resizeParent=1;resizeLast=0;collapsible=1;marginBottom=0;swimlaneFillColor=#ffffff;rounded=1;shadow=0;comic=0;labelBackgroundColor=none;strokeWidth=1;fillColor=#cce5ff;fontFamily=Candara;fontSize=12;strokeColor=#36393d;" parent="1" vertex="1">
          <mxGeometry x="40" y="1178" width="180" height="170" as="geometry">
            <mxRectangle x="120" y="1212" width="200" height="90" as="alternateBounds" />
          </mxGeometry>
        </mxCell>
        <mxCell id="h4POohfaNBwg2EkNm5uO-219" value="&lt;ul style=&quot;padding-left: 20px; margin-top: 0px; line-height: 160%;&quot;&gt;&lt;li&gt;create()&lt;/li&gt;&lt;li&gt;select()&lt;/li&gt;&lt;li&gt;modify()&lt;/li&gt;&lt;li&gt;delete()&lt;/li&gt;&lt;li&gt;manegiment() - give Role etc...&lt;/li&gt;&lt;/ul&gt;" style="text;strokeColor=none;align=left;fillColor=none;html=1;verticalAlign=top;rounded=0;fontFamily=Candara;fontSize=12;fontColor=#000000;fontStyle=5;labelBackgroundColor=none;spacingLeft=0;spacingBottom=1;" parent="h4POohfaNBwg2EkNm5uO-109" vertex="1">
          <mxGeometry y="26" width="180" height="30" as="geometry" />
        </mxCell>
        <mxCell id="h4POohfaNBwg2EkNm5uO-116" value="Category" style="swimlane;html=1;fontStyle=1;align=center;verticalAlign=top;childLayout=stackLayout;horizontal=1;startSize=26;horizontalStack=0;resizeParent=1;resizeLast=0;collapsible=1;marginBottom=0;swimlaneFillColor=#ffffff;rounded=1;shadow=0;comic=0;labelBackgroundColor=none;strokeWidth=1;fillColor=#fa6800;fontFamily=Candara;fontSize=12;fontColor=#000000;strokeColor=#C73500;perimeterSpacing=0;" parent="1" vertex="1">
          <mxGeometry x="320" y="120" width="180" height="170" as="geometry">
            <mxRectangle x="120" y="550" width="200" height="90" as="alternateBounds" />
          </mxGeometry>
        </mxCell>
        <object label="&lt;ul style=&quot;padding-left: 20px; margin-right: 0px; margin-top: 0px; margin-bottom: 0px; line-height: 160%;&quot;&gt;&lt;li&gt;&lt;font color=&quot;#004c99&quot;&gt;&lt;i&gt;&lt;u&gt;categoryId&lt;/u&gt;&lt;/i&gt;&lt;/font&gt;&lt;/li&gt;&lt;li&gt;path&lt;/li&gt;&lt;li&gt;&lt;i&gt;&lt;u&gt;&lt;font color=&quot;#004c99&quot;&gt;categoryType&lt;/font&gt;&lt;/u&gt;&lt;/i&gt;&lt;/li&gt;&lt;li&gt;&lt;i&gt;&lt;u&gt;&lt;font color=&quot;#004c99&quot;&gt;cetegoryName&lt;/font&gt;&lt;/u&gt;&lt;/i&gt;&lt;/li&gt;&lt;/ul&gt;" line-height="2" placeholders="1" id="h4POohfaNBwg2EkNm5uO-171">
          <mxCell style="text;strokeColor=none;align=left;fillColor=none;verticalAlign=top;rounded=0;fontFamily=Candara;fontSize=12;fontColor=#000000;fontStyle=1;labelBackgroundColor=none;spacingLeft=0;spacingBottom=1;arcSize=14;line-height=5;html=1;" parent="h4POohfaNBwg2EkNm5uO-116" vertex="1">
            <mxGeometry y="26" width="180" height="30" as="geometry" />
          </mxCell>
        </object>
        <mxCell id="h4POohfaNBwg2EkNm5uO-127" value="&lt;span&gt;&lt;font style=&quot;font-size: 50px;&quot;&gt;DB&lt;/font&gt;&lt;/span&gt;" style="rounded=0;html=1;align=center;fontFamily=Candara;fontStyle=1" parent="1" vertex="1">
          <mxGeometry x="600" y="-470" width="180" height="170" as="geometry" />
        </mxCell>
        <mxCell id="h4POohfaNBwg2EkNm5uO-165" value="" style="endArrow=classic;html=1;rounded=0;entryX=0.5;entryY=1;entryDx=0;entryDy=0;align=center;fontSize=11;strokeWidth=4;fontFamily=Candara;" parent="1" target="h4POohfaNBwg2EkNm5uO-20" edge="1">
          <mxGeometry width="50" height="50" relative="1" as="geometry">
            <mxPoint x="690" y="1930" as="sourcePoint" />
            <mxPoint x="410" y="1860" as="targetPoint" />
            <Array as="points">
              <mxPoint x="410" y="1930" />
            </Array>
          </mxGeometry>
        </mxCell>
        <mxCell id="h4POohfaNBwg2EkNm5uO-166" value="" style="endArrow=classic;html=1;rounded=0;entryX=0.5;entryY=1;entryDx=0;entryDy=0;align=center;fontSize=11;strokeWidth=4;fontFamily=Candara;" parent="1" target="h4POohfaNBwg2EkNm5uO-33" edge="1">
          <mxGeometry width="50" height="50" relative="1" as="geometry">
            <mxPoint x="690" y="1930" as="sourcePoint" />
            <mxPoint x="970" y="1860" as="targetPoint" />
            <Array as="points">
              <mxPoint x="970" y="1930" />
            </Array>
          </mxGeometry>
        </mxCell>
        <mxCell id="h4POohfaNBwg2EkNm5uO-224" style="edgeStyle=orthogonalEdgeStyle;rounded=0;orthogonalLoop=1;jettySize=auto;html=1;fontFamily=Verdana;fontSize=12;fontColor=#000000;fontStyle=1;labelBackgroundColor=none;strokeWidth=4;endArrow=diamondThin;endFill=1;fillColor=#fa6800;strokeColor=#C73500;" parent="1" source="h4POohfaNBwg2EkNm5uO-222" target="h4POohfaNBwg2EkNm5uO-88" edge="1">
          <mxGeometry relative="1" as="geometry" />
        </mxCell>
        <mxCell id="h4POohfaNBwg2EkNm5uO-222" value="Board_Files" style="swimlane;html=1;fontStyle=1;align=center;verticalAlign=top;childLayout=stackLayout;horizontal=1;startSize=26;horizontalStack=0;resizeParent=1;resizeLast=0;collapsible=1;marginBottom=0;swimlaneFillColor=#ffffff;rounded=1;shadow=0;comic=0;labelBackgroundColor=none;strokeWidth=1;fillColor=#fa6800;fontFamily=Candara;fontSize=12;fontColor=#000000;strokeColor=#C73500;" parent="1" vertex="1">
          <mxGeometry x="320" y="-80" width="180" height="120" as="geometry">
            <mxRectangle x="670" y="550" width="200" height="90" as="alternateBounds" />
          </mxGeometry>
        </mxCell>
        <mxCell id="h4POohfaNBwg2EkNm5uO-223" value="&lt;ul style=&quot;padding-left: 20px; margin-top: 0px; line-height: 160%;&quot;&gt;&lt;li&gt;fileId&lt;/li&gt;&lt;li&gt;fileName&lt;/li&gt;&lt;li&gt;ord&lt;/li&gt;&lt;li&gt;&lt;i&gt;&lt;u&gt;&lt;font color=&quot;#004c99&quot;&gt;imageChk&lt;/font&gt;&lt;/u&gt;&lt;/i&gt;&lt;/li&gt;&lt;/ul&gt;" style="text;strokeColor=none;align=left;fillColor=none;html=1;verticalAlign=top;rounded=0;fontFamily=Candara;fontSize=12;fontColor=#000000;fontStyle=1;labelBackgroundColor=none;spacingLeft=0;spacingBottom=1;" parent="h4POohfaNBwg2EkNm5uO-222" vertex="1">
          <mxGeometry y="26" width="180" height="30" as="geometry" />
        </mxCell>
        <mxCell id="h4POohfaNBwg2EkNm5uO-228" value="" style="endArrow=none;html=1;rounded=0;fontFamily=Verdana;fontSize=12;fontColor=#000000;fontStyle=1;labelBackgroundColor=none;exitX=0.5;exitY=0;exitDx=0;exitDy=0;strokeWidth=4;" parent="1" source="h4POohfaNBwg2EkNm5uO-24" edge="1">
          <mxGeometry width="50" height="50" relative="1" as="geometry">
            <mxPoint x="-120" y="1116" as="sourcePoint" />
            <mxPoint x="130" y="1010" as="targetPoint" />
            <Array as="points">
              <mxPoint x="-140" y="1010" />
            </Array>
          </mxGeometry>
        </mxCell>
        <mxCell id="h4POohfaNBwg2EkNm5uO-241" value="" style="edgeStyle=orthogonalEdgeStyle;rounded=0;orthogonalLoop=1;jettySize=auto;html=1;fontFamily=Verdana;fontSize=12;fontColor=#000000;fontStyle=1;labelBackgroundColor=none;strokeWidth=4;endArrow=diamondThin;endFill=1;strokeColor=#BF6CD8;" parent="1" source="h4POohfaNBwg2EkNm5uO-234" target="h4POohfaNBwg2EkNm5uO-239" edge="1">
          <mxGeometry relative="1" as="geometry" />
        </mxCell>
        <mxCell id="h4POohfaNBwg2EkNm5uO-234" value="FilesDTO" style="swimlane;html=1;fontStyle=1;align=center;verticalAlign=top;childLayout=stackLayout;horizontal=1;startSize=26;horizontalStack=0;resizeParent=1;resizeLast=0;collapsible=1;marginBottom=0;swimlaneFillColor=#ffffff;rounded=1;shadow=0;comic=0;labelBackgroundColor=none;strokeWidth=1;fillColor=#BF6CD8;fontFamily=Candara;fontSize=12;strokeColor=#A50040;fontColor=#000000;" parent="1" vertex="1">
          <mxGeometry x="1940" y="660" width="180" height="170" as="geometry">
            <mxRectangle x="-160" y="990" width="200" height="90" as="alternateBounds" />
          </mxGeometry>
        </mxCell>
        <mxCell id="h4POohfaNBwg2EkNm5uO-278" value="&lt;ul style=&quot;padding-left: 20px; margin-top: 0px; line-height: 160%;&quot;&gt;&lt;li&gt;fileId&lt;/li&gt;&lt;li&gt;fileName&lt;/li&gt;&lt;li&gt;ord&lt;/li&gt;&lt;/ul&gt;" style="text;strokeColor=none;align=left;fillColor=none;html=1;verticalAlign=top;rounded=0;fontFamily=Candara;fontSize=12;fontColor=#000000;fontStyle=1;labelBackgroundColor=none;spacingLeft=0;spacingBottom=1;" parent="h4POohfaNBwg2EkNm5uO-234" vertex="1">
          <mxGeometry y="26" width="180" height="30" as="geometry" />
        </mxCell>
        <mxCell id="h4POohfaNBwg2EkNm5uO-239" value="BoardDTO" style="swimlane;html=1;fontStyle=1;align=center;verticalAlign=top;childLayout=stackLayout;horizontal=1;startSize=26;horizontalStack=0;resizeParent=1;resizeLast=0;collapsible=1;marginBottom=0;swimlaneFillColor=#ffffff;rounded=1;shadow=0;comic=0;labelBackgroundColor=none;strokeWidth=1;fillColor=#BF6CD8;fontFamily=Candara;fontSize=12;strokeColor=#A50040;fontColor=#000000;" parent="1" vertex="1">
          <mxGeometry x="1940" y="880" width="180" height="210" as="geometry">
            <mxRectangle x="-160" y="990" width="200" height="90" as="alternateBounds" />
          </mxGeometry>
        </mxCell>
        <mxCell id="h4POohfaNBwg2EkNm5uO-276" value="&lt;ul style=&quot;padding-left: 20px; margin-top: 0px; line-height: 160%;&quot;&gt;&lt;li&gt;bno&lt;/li&gt;&lt;li&gt;title&lt;/li&gt;&lt;li&gt;content&lt;/li&gt;&lt;li&gt;writer&lt;/li&gt;&lt;li&gt;postDate&lt;/li&gt;&lt;li&gt;modifyDate&lt;/li&gt;&lt;li&gt;viewCount&lt;/li&gt;&lt;li&gt;vote&lt;/li&gt;&lt;li&gt;files&lt;/li&gt;&lt;/ul&gt;" style="text;strokeColor=none;align=left;fillColor=none;html=1;verticalAlign=top;rounded=0;fontFamily=Candara;fontSize=12;fontColor=#000000;fontStyle=1;labelBackgroundColor=none;spacingLeft=0;spacingBottom=1;" parent="h4POohfaNBwg2EkNm5uO-239" vertex="1">
          <mxGeometry y="26" width="180" height="30" as="geometry" />
        </mxCell>
        <mxCell id="h4POohfaNBwg2EkNm5uO-242" value="BoardListDTO" style="swimlane;html=1;fontStyle=1;align=center;verticalAlign=top;childLayout=stackLayout;horizontal=1;startSize=26;horizontalStack=0;resizeParent=1;resizeLast=0;collapsible=1;marginBottom=0;swimlaneFillColor=#ffffff;rounded=1;shadow=0;comic=0;labelBackgroundColor=none;strokeWidth=1;fillColor=#BF6CD8;fontFamily=Candara;fontSize=12;strokeColor=#A50040;fontColor=#000000;" parent="1" vertex="1">
          <mxGeometry x="1680" y="1240" width="180" height="170" as="geometry">
            <mxRectangle x="-160" y="990" width="200" height="90" as="alternateBounds" />
          </mxGeometry>
        </mxCell>
        <mxCell id="h4POohfaNBwg2EkNm5uO-243" value="&lt;ul style=&quot;padding-left: 20px; margin-top: 0px; line-height: 160%;&quot;&gt;&lt;li&gt;title&lt;/li&gt;&lt;li&gt;replyCount&lt;/li&gt;&lt;li&gt;imageOrFile&lt;/li&gt;&lt;li&gt;writer&lt;/li&gt;&lt;li&gt;postDate&lt;/li&gt;&lt;/ul&gt;" style="text;strokeColor=none;align=left;fillColor=none;html=1;verticalAlign=top;rounded=0;fontFamily=Candara;fontSize=12;fontColor=#000000;fontStyle=1;labelBackgroundColor=none;spacingLeft=0;spacingBottom=1;" parent="h4POohfaNBwg2EkNm5uO-242" vertex="1">
          <mxGeometry y="26" width="180" height="30" as="geometry" />
        </mxCell>
        <mxCell id="h4POohfaNBwg2EkNm5uO-271" style="edgeStyle=orthogonalEdgeStyle;rounded=0;orthogonalLoop=1;jettySize=auto;html=1;fontFamily=Verdana;fontSize=12;fontColor=#000000;fontStyle=1;labelBackgroundColor=none;endArrow=diamondThin;endFill=1;strokeWidth=4;strokeColor=#BF6CD8;" parent="1" source="h4POohfaNBwg2EkNm5uO-245" edge="1">
          <mxGeometry relative="1" as="geometry">
            <mxPoint x="1940" y="965" as="targetPoint" />
            <Array as="points">
              <mxPoint x="1940" y="965" />
            </Array>
          </mxGeometry>
        </mxCell>
        <mxCell id="h4POohfaNBwg2EkNm5uO-273" style="edgeStyle=orthogonalEdgeStyle;rounded=0;orthogonalLoop=1;jettySize=auto;html=1;entryX=0.5;entryY=0;entryDx=0;entryDy=0;fontFamily=Verdana;fontSize=12;fontColor=#000000;fontStyle=1;labelBackgroundColor=none;endArrow=diamondThin;endFill=1;strokeWidth=4;strokeColor=#BF6CD8;" parent="1" source="h4POohfaNBwg2EkNm5uO-245" target="h4POohfaNBwg2EkNm5uO-242" edge="1">
          <mxGeometry relative="1" as="geometry" />
        </mxCell>
        <mxCell id="h4POohfaNBwg2EkNm5uO-245" value="UploadFilesDTO" style="swimlane;html=1;fontStyle=1;align=center;verticalAlign=top;childLayout=stackLayout;horizontal=1;startSize=26;horizontalStack=0;resizeParent=1;resizeLast=0;collapsible=1;marginBottom=0;swimlaneFillColor=#ffffff;rounded=1;shadow=0;comic=0;labelBackgroundColor=none;strokeWidth=1;fillColor=#BF6CD8;fontFamily=Candara;fontSize=12;strokeColor=#A50040;fontColor=#000000;" parent="1" vertex="1">
          <mxGeometry x="1680" y="880" width="180" height="170" as="geometry">
            <mxRectangle x="-160" y="990" width="200" height="90" as="alternateBounds" />
          </mxGeometry>
        </mxCell>
        <mxCell id="h4POohfaNBwg2EkNm5uO-246" value="&lt;ul style=&quot;padding-left: 20px; margin-top: 0px; line-height: 160%;&quot;&gt;&lt;li&gt;MultipartFile&lt;/li&gt;&lt;/ul&gt;" style="text;strokeColor=none;align=left;fillColor=none;html=1;verticalAlign=top;rounded=0;fontFamily=Candara;fontSize=12;fontColor=#000000;fontStyle=1;labelBackgroundColor=none;spacingLeft=0;spacingBottom=1;" parent="h4POohfaNBwg2EkNm5uO-245" vertex="1">
          <mxGeometry y="26" width="180" height="30" as="geometry" />
        </mxCell>
        <mxCell id="h4POohfaNBwg2EkNm5uO-248" value="MemberDTO" style="swimlane;html=1;fontStyle=1;align=center;verticalAlign=top;childLayout=stackLayout;horizontal=1;startSize=26;horizontalStack=0;resizeParent=1;resizeLast=0;collapsible=1;marginBottom=0;swimlaneFillColor=#ffffff;rounded=1;shadow=0;comic=0;labelBackgroundColor=none;strokeWidth=1;fillColor=#BF6CD8;fontFamily=Candara;fontSize=12;strokeColor=#A50040;fontColor=#000000;" parent="1" vertex="1">
          <mxGeometry x="2210" y="880" width="180" height="210" as="geometry">
            <mxRectangle x="-160" y="990" width="200" height="90" as="alternateBounds" />
          </mxGeometry>
        </mxCell>
        <mxCell id="h4POohfaNBwg2EkNm5uO-279" value="&lt;ul style=&quot;padding-left: 20px; margin-top: 0px; line-height: 160%;&quot;&gt;&lt;li&gt;mid&lt;/li&gt;&lt;li&gt;nickname&lt;/li&gt;&lt;li&gt;mpw&lt;/li&gt;&lt;li&gt;email&lt;/li&gt;&lt;li&gt;userRole&lt;/li&gt;&lt;li&gt;registDate&lt;/li&gt;&lt;li&gt;modifyDate&lt;/li&gt;&lt;li&gt;rememberMe&lt;/li&gt;&lt;li&gt;social&lt;/li&gt;&lt;/ul&gt;" style="text;strokeColor=none;align=left;fillColor=none;html=1;verticalAlign=top;rounded=0;fontFamily=Candara;fontSize=12;fontColor=#000000;fontStyle=1;labelBackgroundColor=none;spacingLeft=0;spacingBottom=1;" parent="h4POohfaNBwg2EkNm5uO-248" vertex="1">
          <mxGeometry y="26" width="180" height="30" as="geometry" />
        </mxCell>
        <mxCell id="h4POohfaNBwg2EkNm5uO-252" value="ReplyDTO" style="swimlane;html=1;fontStyle=1;align=center;verticalAlign=top;childLayout=stackLayout;horizontal=1;startSize=26;horizontalStack=0;resizeParent=1;resizeLast=0;collapsible=1;marginBottom=0;swimlaneFillColor=#ffffff;rounded=1;shadow=0;comic=0;labelBackgroundColor=none;strokeWidth=1;fillColor=#BF6CD8;fontFamily=Candara;fontSize=12;strokeColor=#A50040;fontColor=#000000;" parent="1" vertex="1">
          <mxGeometry x="2470" y="880" width="180" height="170" as="geometry">
            <mxRectangle x="-160" y="990" width="200" height="90" as="alternateBounds" />
          </mxGeometry>
        </mxCell>
        <mxCell id="h4POohfaNBwg2EkNm5uO-280" value="&lt;ul style=&quot;padding-left: 20px; margin-top: 0px; line-height: 160%;&quot;&gt;&lt;li&gt;&lt;span style=&quot;background-color: initial;&quot;&gt;rno&lt;/span&gt;&lt;/li&gt;&lt;li&gt;&lt;span style=&quot;background-color: initial;&quot;&gt;replyContent&lt;/span&gt;&lt;/li&gt;&lt;li&gt;&lt;span style=&quot;background-color: initial;&quot;&gt;replyWriter&lt;/span&gt;&lt;/li&gt;&lt;li&gt;&lt;span style=&quot;background-color: initial;&quot;&gt;replyDate&lt;/span&gt;&lt;/li&gt;&lt;li&gt;&lt;span style=&quot;background-color: initial;&quot;&gt;vote&lt;/span&gt;&lt;/li&gt;&lt;/ul&gt;" style="text;strokeColor=none;align=left;fillColor=none;html=1;verticalAlign=top;rounded=0;fontFamily=Candara;fontSize=12;fontColor=#000000;fontStyle=1;labelBackgroundColor=none;spacingLeft=0;spacingBottom=1;" parent="h4POohfaNBwg2EkNm5uO-252" vertex="1">
          <mxGeometry y="26" width="180" height="30" as="geometry" />
        </mxCell>
        <mxCell id="h4POohfaNBwg2EkNm5uO-260" value="" style="edgeStyle=orthogonalEdgeStyle;rounded=0;orthogonalLoop=1;jettySize=auto;html=1;fontFamily=Verdana;fontSize=12;fontColor=#000000;fontStyle=1;labelBackgroundColor=none;startArrow=diamondThin;startFill=1;endArrow=diamondThin;endFill=1;strokeWidth=4;strokeColor=#BF6CD8;" parent="1" source="h4POohfaNBwg2EkNm5uO-254" target="h4POohfaNBwg2EkNm5uO-258" edge="1">
          <mxGeometry relative="1" as="geometry">
            <Array as="points">
              <mxPoint x="2310" y="1329" />
              <mxPoint x="2310" y="1329" />
            </Array>
          </mxGeometry>
        </mxCell>
        <mxCell id="h4POohfaNBwg2EkNm5uO-274" style="edgeStyle=orthogonalEdgeStyle;rounded=0;orthogonalLoop=1;jettySize=auto;html=1;entryX=1;entryY=0.5;entryDx=0;entryDy=0;fontFamily=Verdana;fontSize=12;fontColor=#000000;fontStyle=1;labelBackgroundColor=none;strokeColor=#BF6CD8;strokeWidth=4;align=center;verticalAlign=middle;startSize=6;endArrow=diamondThin;endFill=0;endSize=15;" parent="1" source="h4POohfaNBwg2EkNm5uO-254" target="h4POohfaNBwg2EkNm5uO-242" edge="1">
          <mxGeometry relative="1" as="geometry">
            <Array as="points">
              <mxPoint x="2020" y="1325" />
              <mxPoint x="2020" y="1325" />
            </Array>
          </mxGeometry>
        </mxCell>
        <mxCell id="h4POohfaNBwg2EkNm5uO-254" value="PageResDTO" style="swimlane;html=1;fontStyle=1;align=center;verticalAlign=top;childLayout=stackLayout;horizontal=1;startSize=26;horizontalStack=0;resizeParent=1;resizeLast=0;collapsible=1;marginBottom=0;swimlaneFillColor=#ffffff;rounded=1;shadow=0;comic=0;labelBackgroundColor=none;strokeWidth=1;fillColor=#BF6CD8;fontFamily=Candara;fontSize=12;strokeColor=#A50040;fontColor=#000000;" parent="1" vertex="1">
          <mxGeometry x="2080" y="1240" width="180" height="230" as="geometry">
            <mxRectangle x="-160" y="990" width="200" height="90" as="alternateBounds" />
          </mxGeometry>
        </mxCell>
        <mxCell id="h4POohfaNBwg2EkNm5uO-281" value="&lt;ul style=&quot;padding-left: 20px; margin-top: 0px; line-height: 160%;&quot;&gt;&lt;li&gt;page&lt;/li&gt;&lt;li&gt;size&lt;/li&gt;&lt;li&gt;total&lt;/li&gt;&lt;li&gt;start&lt;/li&gt;&lt;li&gt;end&lt;/li&gt;&lt;li&gt;prev&lt;/li&gt;&lt;li&gt;next&lt;/li&gt;&lt;li&gt;dtoList&lt;/li&gt;&lt;/ul&gt;" style="text;strokeColor=none;align=left;fillColor=none;html=1;verticalAlign=top;rounded=0;fontFamily=Candara;fontSize=12;fontColor=#000000;fontStyle=1;labelBackgroundColor=none;spacingLeft=0;spacingBottom=1;" parent="h4POohfaNBwg2EkNm5uO-254" vertex="1">
          <mxGeometry y="26" width="180" height="30" as="geometry" />
        </mxCell>
        <mxCell id="h4POohfaNBwg2EkNm5uO-258" value="PageReqDTO" style="swimlane;html=1;fontStyle=1;align=center;verticalAlign=top;childLayout=stackLayout;horizontal=1;startSize=26;horizontalStack=0;resizeParent=1;resizeLast=0;collapsible=1;marginBottom=0;swimlaneFillColor=#ffffff;rounded=1;shadow=0;comic=0;labelBackgroundColor=none;strokeWidth=1;fillColor=#BF6CD8;fontFamily=Candara;fontSize=12;strokeColor=#A50040;fontColor=#000000;" parent="1" vertex="1">
          <mxGeometry x="2340" y="1240" width="180" height="170" as="geometry">
            <mxRectangle x="-160" y="990" width="200" height="90" as="alternateBounds" />
          </mxGeometry>
        </mxCell>
        <mxCell id="h4POohfaNBwg2EkNm5uO-255" value="&lt;ul style=&quot;padding-left: 20px; margin-top: 0px; line-height: 160%;&quot;&gt;&lt;li&gt;page&lt;/li&gt;&lt;li&gt;size&lt;/li&gt;&lt;li&gt;selectCommunity&lt;/li&gt;&lt;li&gt;selectCategory&lt;/li&gt;&lt;li&gt;searchType&lt;/li&gt;&lt;li&gt;keyword&lt;/li&gt;&lt;/ul&gt;" style="text;strokeColor=none;align=left;fillColor=none;html=1;verticalAlign=top;rounded=0;fontFamily=Candara;fontSize=12;fontColor=#000000;fontStyle=1;labelBackgroundColor=none;spacingLeft=0;spacingBottom=1;" parent="h4POohfaNBwg2EkNm5uO-258" vertex="1">
          <mxGeometry y="26" width="180" height="30" as="geometry" />
        </mxCell>
        <mxCell id="h4POohfaNBwg2EkNm5uO-262" value="" style="endArrow=diamondThin;startArrow=none;html=1;rounded=0;fontFamily=Verdana;fontSize=12;fontColor=#000000;fontStyle=1;labelBackgroundColor=none;entryX=0.5;entryY=1;entryDx=0;entryDy=0;startFill=0;strokeWidth=4;endFill=0;startSize=6;endSize=15;strokeColor=#BF6CD8;" parent="1" target="h4POohfaNBwg2EkNm5uO-248" edge="1">
          <mxGeometry width="50" height="50" relative="1" as="geometry">
            <mxPoint x="2300" y="1330" as="sourcePoint" />
            <mxPoint x="2340" y="1060" as="targetPoint" />
          </mxGeometry>
        </mxCell>
        <mxCell id="h4POohfaNBwg2EkNm5uO-267" value="" style="endArrow=none;html=1;rounded=0;fontFamily=Verdana;fontSize=12;fontColor=#000000;fontStyle=1;labelBackgroundColor=none;entryX=0.5;entryY=1;entryDx=0;entryDy=0;strokeWidth=4;endFill=0;startSize=6;endSize=20;strokeColor=#BF6CD8;startArrow=diamondThin;startFill=1;exitX=1;exitY=0;exitDx=0;exitDy=0;" parent="1" source="h4POohfaNBwg2EkNm5uO-242" target="h4POohfaNBwg2EkNm5uO-239" edge="1">
          <mxGeometry width="50" height="50" relative="1" as="geometry">
            <mxPoint x="1880" y="1230" as="sourcePoint" />
            <mxPoint x="2030" y="1096" as="targetPoint" />
            <Array as="points" />
          </mxGeometry>
        </mxCell>
        <mxCell id="h4POohfaNBwg2EkNm5uO-269" value="" style="endArrow=diamondThin;html=1;rounded=0;fontFamily=Verdana;fontSize=12;fontColor=#000000;fontStyle=1;labelBackgroundColor=none;entryX=0.5;entryY=1;entryDx=0;entryDy=0;strokeWidth=4;endFill=0;startSize=6;endSize=15;strokeColor=#BF6CD8;" parent="1" target="h4POohfaNBwg2EkNm5uO-252" edge="1">
          <mxGeometry width="50" height="50" relative="1" as="geometry">
            <mxPoint x="2300" y="1156" as="sourcePoint" />
            <mxPoint x="2560" y="1096" as="targetPoint" />
            <Array as="points">
              <mxPoint x="2560" y="1156" />
            </Array>
          </mxGeometry>
        </mxCell>
        <mxCell id="2" style="edgeStyle=orthogonalEdgeStyle;rounded=0;orthogonalLoop=1;jettySize=auto;html=1;fontFamily=Verdana;fontSize=12;fontColor=#000000;fontStyle=1;labelBackgroundColor=none;strokeWidth=4;endArrow=diamondThin;endFill=1;fillColor=#fa6800;strokeColor=#C73500;exitX=0;exitY=0.5;exitDx=0;exitDy=0;entryX=1;entryY=0.5;entryDx=0;entryDy=0;" edge="1" parent="1" source="h4POohfaNBwg2EkNm5uO-88" target="h4POohfaNBwg2EkNm5uO-116">
          <mxGeometry relative="1" as="geometry">
            <mxPoint x="600" y="219.9988235294117" as="sourcePoint" />
            <mxPoint x="500" y="220" as="targetPoint" />
          </mxGeometry>
        </mxCell>
        <mxCell id="3" style="edgeStyle=orthogonalEdgeStyle;rounded=0;orthogonalLoop=1;jettySize=auto;html=1;fontFamily=Verdana;fontSize=12;fontColor=#000000;fontStyle=1;labelBackgroundColor=none;strokeWidth=4;endArrow=diamondThin;endFill=1;fillColor=#fa6800;strokeColor=#C73500;exitX=0;exitY=0.5;exitDx=0;exitDy=0;entryX=1;entryY=0.5;entryDx=0;entryDy=0;" edge="1" parent="1" source="h4POohfaNBwg2EkNm5uO-116" target="h4POohfaNBwg2EkNm5uO-85">
          <mxGeometry relative="1" as="geometry">
            <mxPoint x="290" y="350" as="sourcePoint" />
            <mxPoint x="190" y="350" as="targetPoint" />
          </mxGeometry>
        </mxCell>
        <mxCell id="6" value="Like" style="swimlane;html=1;fontStyle=1;align=center;verticalAlign=top;childLayout=stackLayout;horizontal=1;startSize=26;horizontalStack=0;resizeParent=1;resizeLast=0;collapsible=1;marginBottom=0;swimlaneFillColor=#ffffff;rounded=1;shadow=0;comic=0;labelBackgroundColor=none;strokeWidth=1;fillColor=#fa6800;fontFamily=Candara;fontSize=12;fontColor=#000000;strokeColor=#C73500;" vertex="1" parent="1">
          <mxGeometry x="880" y="-70" width="180" height="70" as="geometry">
            <mxRectangle x="940" y="550" width="200" height="90" as="alternateBounds" />
          </mxGeometry>
        </mxCell>
        <mxCell id="7" value="&lt;ul style=&quot;padding-left: 20px; margin-top: 0px; line-height: 160%;&quot;&gt;&lt;li&gt;Lno&lt;/li&gt;&lt;/ul&gt;" style="text;strokeColor=none;align=left;fillColor=none;html=1;verticalAlign=top;rounded=0;fontFamily=Candara;fontSize=12;fontColor=#000000;fontStyle=1;labelBackgroundColor=none;spacingLeft=0;spacingBottom=1;" vertex="1" parent="6">
          <mxGeometry y="26" width="180" height="30" as="geometry" />
        </mxCell>
        <mxCell id="9" style="edgeStyle=orthogonalEdgeStyle;rounded=0;orthogonalLoop=1;jettySize=auto;html=1;fontFamily=Verdana;fontSize=12;fontColor=#000000;fontStyle=1;labelBackgroundColor=none;strokeWidth=4;endArrow=diamondThin;endFill=1;fillColor=#fa6800;strokeColor=#C73500;exitX=0.5;exitY=1;exitDx=0;exitDy=0;entryX=0.5;entryY=0;entryDx=0;entryDy=0;" edge="1" parent="1" source="6" target="h4POohfaNBwg2EkNm5uO-96">
          <mxGeometry relative="1" as="geometry">
            <mxPoint x="980" y="-140" as="sourcePoint" />
            <mxPoint x="880" y="-140" as="targetPoint" />
          </mxGeometry>
        </mxCell>
        <mxCell id="10" style="edgeStyle=orthogonalEdgeStyle;rounded=0;orthogonalLoop=1;jettySize=auto;html=1;fontFamily=Verdana;fontSize=12;fontColor=#000000;fontStyle=1;labelBackgroundColor=none;strokeWidth=4;endArrow=diamondThin;endFill=1;fillColor=#fa6800;strokeColor=#C73500;entryX=0;entryY=0.5;entryDx=0;entryDy=0;" edge="1" parent="1" target="h4POohfaNBwg2EkNm5uO-106">
          <mxGeometry relative="1" as="geometry">
            <mxPoint x="970" y="40" as="sourcePoint" />
            <mxPoint x="1059" y="130" as="targetPoint" />
            <Array as="points">
              <mxPoint x="970" y="41" />
              <mxPoint x="1100" y="41" />
              <mxPoint x="1100" y="205" />
            </Array>
          </mxGeometry>
        </mxCell>
        <mxCell id="11" style="edgeStyle=orthogonalEdgeStyle;rounded=0;orthogonalLoop=1;jettySize=auto;html=1;fontFamily=Verdana;fontSize=12;fontColor=#000000;fontStyle=1;labelBackgroundColor=none;strokeWidth=4;endArrow=diamondThin;endFill=1;fillColor=#fa6800;strokeColor=#C73500;entryX=1;entryY=0.5;entryDx=0;entryDy=0;" edge="1" parent="1" target="h4POohfaNBwg2EkNm5uO-88">
          <mxGeometry relative="1" as="geometry">
            <mxPoint x="970" y="40" as="sourcePoint" />
            <mxPoint x="1060" y="130" as="targetPoint" />
            <Array as="points">
              <mxPoint x="970" y="41" />
              <mxPoint x="830" y="41" />
              <mxPoint x="830" y="205" />
            </Array>
          </mxGeometry>
        </mxCell>
        <mxCell id="13" style="edgeStyle=orthogonalEdgeStyle;rounded=0;orthogonalLoop=1;jettySize=auto;html=1;fontFamily=Verdana;fontSize=12;fontColor=#000000;fontStyle=1;labelBackgroundColor=none;strokeWidth=4;endArrow=diamondThin;endFill=1;fillColor=#fa6800;strokeColor=#C73500;exitX=0;exitY=0.5;exitDx=0;exitDy=0;entryX=1;entryY=0.5;entryDx=0;entryDy=0;" edge="1" parent="1" source="h4POohfaNBwg2EkNm5uO-96" target="h4POohfaNBwg2EkNm5uO-88">
          <mxGeometry relative="1" as="geometry">
            <mxPoint x="840" y="280" as="sourcePoint" />
            <mxPoint x="780" y="215" as="targetPoint" />
            <Array as="points">
              <mxPoint x="860" y="205" />
              <mxPoint x="860" y="205" />
            </Array>
          </mxGeometry>
        </mxCell>
        <mxCell id="19" value="User_Role" style="swimlane;html=1;fontStyle=1;align=center;verticalAlign=top;childLayout=stackLayout;horizontal=1;startSize=26;horizontalStack=0;resizeParent=1;resizeLast=0;collapsible=1;marginBottom=0;swimlaneFillColor=#ffffff;rounded=1;shadow=0;comic=0;labelBackgroundColor=none;strokeWidth=1;fillColor=#fa6800;fontFamily=Candara;fontSize=12;fontColor=#000000;strokeColor=#C73500;" vertex="1" parent="1">
          <mxGeometry x="1140" y="-70" width="180" height="90" as="geometry">
            <mxRectangle x="1210" y="550" width="200" height="90" as="alternateBounds" />
          </mxGeometry>
        </mxCell>
        <mxCell id="20" value="&lt;ul style=&quot;padding-left: 20px; margin-top: 0px; line-height: 160%;&quot;&gt;&lt;li&gt;id&lt;/li&gt;&lt;li&gt;role&lt;/li&gt;&lt;/ul&gt;" style="text;strokeColor=none;align=left;fillColor=none;html=1;verticalAlign=top;rounded=0;fontFamily=Candara;fontSize=12;fontColor=#000000;fontStyle=1;labelBackgroundColor=none;spacingLeft=0;spacingBottom=1;" vertex="1" parent="19">
          <mxGeometry y="26" width="180" height="30" as="geometry" />
        </mxCell>
      </root>
    </mxGraphModel>
  </diagram>
</mxfile>
